<svg width="128" height="128" viewBox="0 0 128 128" xmlns="http://www.w3.org/2000/svg">
  <defs>
    <linearGradient id="grad" x1="0%" y1="0%" x2="100%" y2="100%">
      <stop offset="0%" stop-color="#0f766e"/>
      <stop offset="100%" stop-color="#22d3ee"/>
    </linearGradient>
  </defs>
  <rect x="8" y="8" width="112" height="112" rx="28" fill="url(#grad)"/>
  <path d="M64 33c-10.5 0-19 8.5-19 19s8.5 19 19 19 19-8.5 19-19-8.5-19-19-19zm0 48c-18.6 0-34 8.9-34 19.8V96c0-13.3 15.2-24 34-24s34 10.7 34 24v4.8C98 89.9 82.6 81 64 81z" fill="#f8fafc" opacity="0.95"/>
  <path d="M64 41c-6.6 0-12 5.4-12 12s5.4 12 12 12 12-5.4 12-12-5.4-12-12-12z" fill="#0f172a" opacity="0.15"/>
</svg>
